<svg id="Laag_1" data-name="Laag 1" xmlns="http://www.w3.org/2000/svg" xmlns:xlink="http://www.w3.org/1999/xlink" width="130.21" height="81.13" viewBox="0 0 130.21 81.13">
  <defs>
    <style>
      .cls-1 {
        fill: url(#imdbuddies);
      }

      .cls-2 {
        fill: url(#imdbuddies-2);
      }

      .cls-3 {
        fill: url(#imdbuddies-3);
      }

      .cls-4 {
        fill: url(#imdbuddies-4);
      }

      .cls-5 {
        fill: none;
        stroke: #ee9b8e;
        stroke-linecap: round;
        stroke-miterlimit: 10;
        stroke-width: 2px;
      }

      .cls-6 {
        fill: #ee9b8e;
      }
    </style>
    <linearGradient id="imdbuddies" x1="14.66" y1="24.88" x2="53.28" y2="24.88" gradientUnits="userSpaceOnUse">
      <stop offset="0" stop-color="#ee9b8e"/>
      <stop offset="1" stop-color="#d4837b"/>
    </linearGradient>
    <linearGradient id="imdbuddies-2" data-name="imdbuddies" x1="9.62" y1="61.59" x2="58.33" y2="61.59" xlink:href="#imdbuddies"/>
    <linearGradient id="imdbuddies-3" data-name="imdbuddies" x1="76.93" y1="24.88" x2="115.56" y2="24.88" xlink:href="#imdbuddies"/>
    <linearGradient id="imdbuddies-4" data-name="imdbuddies" x1="71.89" y1="61.59" x2="120.6" y2="61.59" xlink:href="#imdbuddies"/>
  </defs>
  <g>
    <path class="cls-1" d="M53.28,24.87A19.31,19.31,0,1,1,34,5.56,19.31,19.31,0,0,1,53.28,24.87Z"/>
    <path class="cls-2" d="M58.33,70.77v4.79H9.62V70.77a24.34,24.34,0,0,1,16.8-23.15,19.39,19.39,0,0,0,15.1,0A24.33,24.33,0,0,1,58.33,70.77Z"/>
    <path class="cls-3" d="M115.56,24.87A19.32,19.32,0,1,1,96.25,5.56,19.31,19.31,0,0,1,115.56,24.87Z"/>
    <path class="cls-4" d="M120.6,70.77v4.79H71.89V70.77a24.34,24.34,0,0,1,16.8-23.15,19.39,19.39,0,0,0,15.1,0A24.33,24.33,0,0,1,120.6,70.77Z"/>
    <path class="cls-1" d="M53.28,24.87A19.31,19.31,0,1,1,34,5.56,19.31,19.31,0,0,1,53.28,24.87Z"/>
    <path class="cls-2" d="M58.33,70.77v4.79H9.62V70.77a24.34,24.34,0,0,1,16.8-23.15,19.39,19.39,0,0,0,15.1,0A24.33,24.33,0,0,1,58.33,70.77Z"/>
  </g>
  <g>
    <path class="cls-5" d="M60.59,45.64l-1.54,1.53a3.48,3.48,0,0,1-4.92,0l-.33-.34a3.47,3.47,0,0,1,0-4.91l7-6.9a3.47,3.47,0,0,1,4.91,0l.33.33a3.59,3.59,0,0,1,.67.94"/>
    <path class="cls-5" d="M66.19,30.23,68.43,28a3.49,3.49,0,0,1,4.92,0l.33.33a3.49,3.49,0,0,1,0,4.92l-7,6.89a3.48,3.48,0,0,1-4.92,0l-.32-.33a3.53,3.53,0,0,1-.67-.94"/>
    <path class="cls-6" d="M60.89,43.94l-1.41,1.41,1.4,1.4L63,44.6A2.86,2.86,0,0,1,60.89,43.94Z"/>
    <path class="cls-6" d="M66.21,31.61l1.41-1.4L66.21,28.8,64.06,31A2.94,2.94,0,0,1,66.21,31.61Z"/>
  </g>
</svg>
