<svg id="Laag_1" data-name="Laag 1" xmlns="http://www.w3.org/2000/svg" width="130.21" height="81.13" viewBox="0 0 130.21 81.13">
  <defs>
    <style>
      .cls-1, .cls-2 {
        fill: #7f8081;
      }

      .cls-1 {
        stroke: #7f8081;
        stroke-miterlimit: 10;
      }
    </style>
  </defs>
  <g>
    <path class="cls-1" d="M53.28,24.87A19.31,19.31,0,1,1,34,5.56,19.31,19.31,0,0,1,53.28,24.87Z"/>
    <path class="cls-1" d="M58.33,70.77v4.79H9.62V70.77a24.34,24.34,0,0,1,16.8-23.15,19.39,19.39,0,0,0,15.1,0A24.33,24.33,0,0,1,58.33,70.77Z"/>
    <path class="cls-1" d="M115.56,24.87A19.32,19.32,0,1,1,96.25,5.56,19.31,19.31,0,0,1,115.56,24.87Z"/>
    <path class="cls-1" d="M120.6,70.77v4.79H71.89V70.77a24.34,24.34,0,0,1,16.8-23.15,19.39,19.39,0,0,0,15.1,0A24.33,24.33,0,0,1,120.6,70.77Z"/>
    <path class="cls-1" d="M53.28,24.87A19.31,19.31,0,1,1,34,5.56,19.31,19.31,0,0,1,53.28,24.87Z"/>
    <path class="cls-1" d="M58.33,70.77v4.79H9.62V70.77a24.34,24.34,0,0,1,16.8-23.15,19.39,19.39,0,0,0,15.1,0A24.33,24.33,0,0,1,58.33,70.77Z"/>
  </g>
  <g>
    <path class="cls-2" d="M67.58,35.86a4.85,4.85,0,0,0-.86-1.21l-.33-.33a4.48,4.48,0,0,0-6.33,0l-7,6.9a4.48,4.48,0,0,0,0,6.33l.33.33a4.43,4.43,0,0,0,3.16,1.32h0a4.42,4.42,0,0,0,3.15-1.3l1.54-1.53,0,0L63,44.6a2.86,2.86,0,0,1-2.15-.66l-1,1,0,0-1.54,1.53a2.62,2.62,0,0,1-1.75.72,2.46,2.46,0,0,1-1.75-.73l-.33-.33a2.47,2.47,0,0,1,0-3.5l6.95-6.9a2.48,2.48,0,0,1,3.5,0l.33.33a2.58,2.58,0,0,1,.48.67,1,1,0,0,0,1.33.47A1,1,0,0,0,67.58,35.86Z"/>
    <path class="cls-2" d="M74.39,27.66l-.33-.34A4.48,4.48,0,0,0,70.9,26h0a4.42,4.42,0,0,0-3.15,1.3l-2.24,2.22v0L64.06,31a2.94,2.94,0,0,1,2.15.66l.64-.64.05,0,2.23-2.22a2.49,2.49,0,0,1,3.51,0l.33.33a2.47,2.47,0,0,1,0,3.51L66,39.46a2.45,2.45,0,0,1-1.75.72h0a2.46,2.46,0,0,1-1.75-.73l-.33-.33a2.61,2.61,0,0,1-.47-.67,1,1,0,0,0-1.8.87,4.3,4.3,0,0,0,.86,1.21l.32.33a4.45,4.45,0,0,0,3.17,1.32h0a4.46,4.46,0,0,0,3.16-1.3L74.36,34a4.5,4.5,0,0,0,1.33-3.17A4.45,4.45,0,0,0,74.39,27.66Z"/>
  </g>
</svg>
